# xmcd
#
# Track frame offsets: 
#        183
#        21113
#        42745
#        56883
#        75135
#        99990
#        111358
#        122960
#        131338
#        141110
#        152863
#        162720
#        178343
#
# Disc length: 2558 seconds
#
# Revision: 12
# Processed by: cddbd v1.5.2PL0 Copyright (c) Steve Scherf et al.
# Submitted via: ExactAudioCopy v1.0b3
#
DISCID=b709fc0d
DTITLE=Rolling Stones, The - More Hot Rocks (Big Hits and Fazed Cookies)
DTITLE=[Disc 2]
DYEAR=1986
DGENRE=Pop
TTITLE0=She's A Rainbow
TTITLE1=2000 Light Years From Home
TTITLE2=Child Of The Moon
TTITLE3=No Expectations
TTITLE4=Let It Bleed
TTITLE5=What To Do
TTITLE6=Money
TTITLE7=Come On
TTITLE8=Fortune Teller
TTITLE9=Poison Ivy
TTITLE10=Bye Bye Johnnie
TTITLE11=I Can't Be Satisfied
TTITLE12=Long Long While
EXTD=1986 abkco Music and Records. Inc.
EXTT0=
EXTT1=
EXTT2=
EXTT3=
EXTT4=
EXTT5=
EXTT6=
EXTT7=
EXTT8=
EXTT9=
EXTT10=
EXTT11=
EXTT12=
PLAYORDER=
